PathFileType	3	(X/Y/Z)	C:\Users\koon_\Desktop\
DataRate	CameraRate	NumFrames	NumMarkers	Units	OrigDataRate	OrigDataStartFrame	OrigNumFrames
100.0	100.0	13	27	mm	100.0	1	3002	
Frame#	Time	GM:LFHD			GM:RFHD			GM:LBHD			GM:RBHD			GM:C7			GM:T10			GM:CLAV			GM:STRN			GM:RBAK			GM:LSHO			GM:LUPA			GM:LELB			GM:LFRA			GM:LWRA			GM:LWRB			GM:LFIN			GM:RSHO			GM:RUPA			GM:RELB			GM:RFRA			GM:RWRA			GM:RWRB			GM:RFIN			GM:LASI			GM:RASI			GM:LPSI			GM:RPSI			
		X1	Y1	Z1	X2	Y2	Z2	X3	Y3	Z3	X4	Y4	Z4	X5	Y5	Z5	X6	Y6	Z6	X7	Y7	Z7	X8	Y8	Z8	X9	Y9	Z9	X10	Y10	Z10	X11	Y11	Z11	X12	Y12	Z12	X13	Y13	Z13	X14	Y14	Z14	X15	Y15	Z15	X16	Y16	Z16	X17	Y17	Z17	X18	Y18	Z18	X19	Y19	Z19	X20	Y20	Z20	X21	Y21	Z21	X22	Y22	Z22	X23	Y23	Z23	X24	Y24	Z24	X25	Y25	Z25	X26	Y26	Z26	X27	Y27	Z27	
1	0	86.548538	1600.4686	-54.067581	-67.537941	1594.668	-54.306297	87.72834	1578.748	-185.47313	-75.911812	1575.7509	-168.74545	3.9627328	1418.9695	-224.508	3.2154508	1227.7086	-280.40302	18.798437	1349.1045	-69.66806	19.272152	1200.8091	-29.870462	-90.749962	1308.8301	-272.50198	181.16029	1388.2999	-165.12312	243.80608	1281.8215	-165.425	266.88809	1069.3695	-200.38728	244.67168	967.94342	-93.545258	242.30023	898.87073	-62.139896	288.50464	878.59454	-105.93383	257.04422	814.91553	-32.669842	-172.76118	1386.4106	-127.86496	-240.22296	1157.3064	-120.61646	-274.53885	1070.868	-163.41148	-248.64264	1023.7059	-84.186386				-278.84467	878.02136	-80.442039	-245.91785	814.39337	-9.7582064	150.86111	900.90692	-66.081436	-141.92767	903.22894	-53.204525	66.427269	949.53577	-272.94635	-71.720909	940.0274	-268.47745
2	0.01	86.573082	1600.468	-54.142174	-67.436623	1594.6974	-54.316708	87.778931	1578.7357	-185.54469	-75.883682	1575.7731	-168.80475	4.0020752	1418.9897	-224.54987	3.270041	1227.7163	-280.4606	18.832029	1349.1205	-69.706154	19.304167	1200.8264	-29.900631	-90.724686	1308.8512	-272.53253	181.19724	1388.3159	-165.14378	243.86629	1281.8273	-165.40016	266.99963	1069.4	-200.37422	244.39914	967.77643	-93.661964	242.35822	898.86896	-62.21204	288.5437	878.58875	-105.98873	257.0719	814.93304	-32.692936	-172.74866	1386.4257	-127.90251	-240.23199	1157.3229	-120.62346	-274.53738	1070.907	-163.41994	-248.61732	1023.7012	-84.212051				-278.84967	878.0434	-80.457634	-245.96005	814.41278	-9.7785749	150.89096	900.95142	-66.102814	-141.88982	903.22626	-53.190018	66.419815	949.52716	-273.00742	-71.70182	940.01019	-268.47754
3	0.02	86.659668	1600.4723	-54.190498	-67.456902	1594.6962	-54.403862	87.86425	1578.6957	-185.54407	-75.860909	1575.7386	-168.83258	4.0609231	1418.9724	-224.56798	3.3038781	1227.7424	-280.46652	18.908207	1349.1223	-69.712479	19.363464	1200.8715	-29.908072	-90.698792	1308.8655	-272.52951	181.25325	1388.3066	-165.16692	243.89871	1281.8157	-165.41948	267.01285	1069.3988	-200.41093	244.31674	967.85541	-93.746086	242.45979	898.8985	-62.141022	288.62155	878.61206	-105.9315	257.15311	814.9043	-32.723492	-172.66656	1386.4697	-127.8487	-240.18726	1157.3662	-120.61085	-274.51865	1070.9434	-163.34628	-248.61732	1023.7012	-84.212051				-278.83847	878.10516	-80.445152	-245.93567	814.41138	-9.7706299	150.9471	900.94446	-66.069092	-141.87685	903.25751	-53.287308	66.475838	949.5127	-273.0325	-71.676094	940.02148	-268.56561
4	0.03	86.73922	1600.4756	-54.239178	-67.321686	1594.707	-54.448013	87.914024	1578.6996	-185.61572	-75.764107	1575.7308	-168.84084	4.088006	1418.9723	-224.5686	3.35847	1227.7502	-280.52411	18.926184	1349.151	-69.707153	19.459732	1200.9	-29.856314	-90.671066	1308.8663	-272.55969	181.28426	1388.308	-165.17433	243.95876	1281.8213	-165.39484	267.05185	1069.3983	-200.41479	244.52095	967.90692	-93.703819	242.51772	898.89673	-62.213341	288.70316	878.63849	-105.93793	257.21368	814.92792	-32.712463	-172.62915	1386.4733	-127.85533	-240.16383	1157.3868	-120.61718	-274.52631	1070.9325	-163.33415	-248.6284	1023.7499	-84.219559				-278.83871	878.10559	-80.445328	-245.96306	814.42883	-9.788332	150.97833	900.96368	-66.149651	-141.86047	903.25586	-53.305641	66.475838	949.5127	-273.0325	-71.642853	940.0387	-268.5661
5	0.04	86.771347	1600.4924	-54.313568	-67.239235	1594.7396	-54.467762	87.969757	1578.6437	-185.64874	-75.760292	1575.7185	-168.94945	4.1716108	1418.9608	-224.60182	3.4124813	1227.759	-280.58157	19.003109	1349.199	-69.659752	19.515432	1200.9536	-29.852163	-90.645279	1308.8662	-272.55994	181.33136	1388.3306	-165.14493	244.04036	1281.855	-165.38609	267.10596	1069.4053	-200.38402	244.45824	967.78546	-93.705185	242.576	898.88635	-62.191536	288.76239	878.64655	-105.95798	257.28122	814.93689	-32.73732	-172.58403	1386.4738	-127.81692	-240.15027	1157.4076	-120.60421	-274.46674	1070.993	-163.33202	-248.60925	1023.7888	-84.207153				-278.84164	878.14526	-80.458557	-245.9097	814.48193	-9.7795553	151.0078	900.94189	-66.128952	-141.79787	903.24792	-53.306568	66.536278	949.52209	-273.08176	-71.645134	940.03925	-268.56741
6	0.05	86.831825	1600.4946	-54.33548	-67.258934	1594.7545	-54.564751	88.022728	1578.652	-185.72298	-75.651054	1575.7134	-168.95366	4.1994791	1418.9994	-224.6214	3.4904325	1227.7603	-280.58331	19.04775	1349.2185	-69.643494	19.529951	1200.9265	-29.878906	-90.624298	1308.864	-272.53516	181.38136	1388.3276	-165.16307	244.05394	1281.8716	-165.38145	267.18106	1069.4231	-200.42651	245.12225	967.85425	-93.444115	242.65863	898.90155	-62.193695	288.83298	878.63531	-105.91262	257.32565	814.94696	-32.732044	-172.51996	1386.4835	-127.82149	-240.12523	1157.4414	-120.54597	-274.46228	1071.0315	-163.31819	-248.60919	1023.7878	-84.206993				-278.81299	878.16437	-80.443916	-245.92819	814.46973	-9.8046875	151.06532	900.94537	-66.145523	-141.75746	903.26904	-53.353062	66.555992	949.52667	-273.12006	-71.617676	940.04663	-268.62396
7	0.06	86.891418	1600.5144	-54.357246	-67.147133	1594.7697	-54.595207	88.079376	1578.642	-185.74985	-75.572052	1575.6975	-168.99622	4.2254515	1418.9963	-224.61682	3.4996016	1227.7617	-280.58432	19.138187	1349.2476	-69.636528	19.581543	1200.9896	-29.909269	-90.566124	1308.9296	-272.57117	181.42902	1388.3503	-165.12502	244.14389	1281.8789	-165.43436	267.28778	1069.452	-200.36098	244.61908	967.81897	-93.695511	242.69698	898.87109	-62.224438	288.88806	878.67719	-105.92495	257.37857	814.95538	-32.726814	-172.44965	1386.5094	-127.80836	-240.05956	1157.4326	-120.54987	-274.45734	1071.0774	-163.33525	-248.55804	1023.7849	-84.198242				-278.79123	878.18994	-80.381302	-245.90781	814.51074	-9.8285074	151.09157	900.96167	-66.205208	-141.78827	903.30585	-53.417706	66.582199	949.52478	-273.1062	-71.562538	940.05255	-268.65274
8	0.07	86.919685	1600.575	-54.426666	-67.1632	1594.7273	-54.660114	88.131638	1578.6333	-185.82295	-75.57872	1575.6876	-169.07036	4.3022137	1418.9834	-224.61481	3.5537603	1227.771	-280.6413	19.159393	1349.266	-69.640129	19.631973	1201.0166	-29.924671	-90.567215	1308.9299	-272.5712	181.45872	1388.3572	-165.1498	244.22278	1281.9036	-165.37567	267.25937	1069.4374	-200.37367	245.02194	967.90826	-93.581192	242.75754	898.93665	-62.211277	288.96835	878.70624	-105.96348	257.42929	814.94452	-32.742859	-172.39616	1386.5106	-127.80715	-240.03572	1157.4816	-120.53149	-274.41119	1071.1055	-163.24217	-248.55807	1023.7844	-84.198097				-278.78299	878.24481	-80.44191	-245.91705	814.53375	-9.852726	151.12959	900.93829	-66.181412	-141.69792	903.30164	-53.437351	66.58477	949.52734	-273.12775	-71.522362	940.06201	-268.71356
9	0.08	86.980347	1600.5525	-54.45425	-67.00238	1594.8197	-54.723507	88.17318	1578.626	-185.81816	-75.578545	1575.6628	-169.06032	4.332356	1419.0208	-224.61469	3.5822542	1227.7726	-280.64014	19.233959	1349.2861	-69.639404	19.686205	1201.0364	-29.919811	-90.489418	1308.9213	-272.52563	181.50327	1388.3707	-165.1331	244.28354	1281.9208	-165.38635	267.39423	1069.4901	-200.37418	244.73039	967.78082	-93.677238	242.8266	898.92755	-62.213715	289.03607	878.70776	-105.90578	257.47403	815.00061	-32.750313	-172.30975	1386.506	-127.74335	-239.99953	1157.4954	-120.5242	-274.36581	1071.1023	-163.26617	-248.49867	1023.8766	-84.144012				-278.75568	878.26611	-80.384987	-245.85252	814.5603	-9.852623	151.15451	900.91486	-66.207809	-141.66988	903.35498	-53.420559	66.640686	949.51172	-273.14053	-71.485886	940.08362	-268.76224
10	0.09	87.00898	1600.5817	-54.467972	-67.006813	1594.8384	-54.805805	88.239159	1578.6113	-185.84088	-75.536789	1575.658	-169.09381	4.4063964	1419.0284	-224.68495	3.6306214	1227.7726	-280.64224	19.250427	1349.3125	-69.624443	19.779222	1201.0579	-29.924829	-90.493355	1308.939	-272.5173	181.54764	1388.3698	-165.11774	244.32716	1281.9392	-165.36633	267.4346	1069.4814	-200.35258	244.82483	967.65698	-93.645256	242.91898	898.94196	-62.212708	289.10522	878.70697	-105.91698	257.53455	814.97119	-32.7174	-172.26839	1386.5554	-127.75183	-239.94772	1157.562	-120.4422	-274.34814	1071.166	-163.23103	-248.4471	1023.8739	-84.13504				-278.73199	878.28082	-80.367584	-245.80859	814.5816	-9.8643227	151.20927	900.93256	-66.214386	-141.61093	903.35297	-53.425262	66.640465	949.50861	-273.12027	-71.508202	940.05261	-268.74902
11	0.1	87.039444	1600.5825	-54.507202	-66.97068	1594.8137	-54.854473	88.283676	1578.6246	-185.91769	-75.473961	1575.6519	-169.17615	4.4381194	1419.011	-224.66937	3.6851833	1227.7817	-280.69925	19.258617	1349.3557	-69.616913	19.843201	1201.1167	-29.890663	-90.464302	1308.9618	-272.52194	181.57281	1388.369	-165.10805	244.40239	1281.947	-165.36115	267.41324	1069.4946	-200.40157	245.00613	967.69971	-93.613571	242.96532	898.98529	-62.201302	289.207	878.72217	-105.89249	257.6243	815.01764	-32.712269	-171.98174	1386.3265	-127.49934	-239.87657	1157.5739	-120.43581	-274.30917	1071.1964	-163.25238	-248.44785	1023.8735	-84.135117				-278.68564	878.31598	-80.364388	-245.79979	814.5882	-9.8714943	151.26515	900.91772	-66.271225	-141.58434	903.35034	-53.442017	66.698647	949.50165	-273.21179	-71.480026	940.06085	-268.80777
12	0.11	87.098206	1600.6237	-54.500179	-66.902489	1594.8153	-54.82774	88.32814	1578.6074	-185.92731	-75.308372	1575.6697	-169.23604	4.462719	1419.0138	-224.70624	3.7140284	1227.7836	-280.6987	19.34985	1349.3794	-69.57711	19.856853	1201.1465	-29.951099	-90.464264	1308.9609	-272.52216	181.62395	1388.3616	-165.08635	244.44524	1281.9613	-165.34875	267.49966	1069.5106	-200.3403	244.93065	967.78583	-93.65979	243.05566	899.02484	-62.203518	289.25793	878.73962	-105.88	257.6687	815.01294	-32.693886	-171.94566	1386.3414	-127.50343	-239.85669	1157.5718	-120.45362	-274.311	1071.1997	-163.2585	-248.42879	1023.9363	-84.127075				-278.66959	878.3147	-80.301254	-245.74089	814.60681	-9.776186	151.30266	900.93066	-66.252457	-141.56374	903.34662	-53.460785	66.701416	949.48022	-273.17001	-71.449707	940.06274	-268.81375
13	0.12	87.096962	1600.6211	-54.556858	-66.877861	1594.8356	-54.849911	88.405663	1578.6318	-185.93115	-75.339806	1575.6621	-169.28073	4.5486822	1418.9789	-224.67178	3.7618644	1227.7822	-280.70172	19.398535	1349.3831	-69.554893	19.865923	1201.1528	-29.953972	-90.41275	1308.9543	-272.49991	181.58647	1388.3811	-165.08173	244.47575	1281.9844	-165.33072	267.32349	1069.4698	-200.35257	245.01201	967.80017	-93.660866	243.1299	899.05475	-62.113987	289.34424	878.74469	-105.88835	257.73544	815.03381	-32.710701	-172.03186	1386.5161	-127.6533	-239.76582	1157.6351	-120.35931	-274.25809	1071.2158	-163.1795	-248.35329	1023.9439	-84.043373				-278.62976	878.37769	-80.285652	-245.70105	814.6286	-9.7915087	151.33644	900.9505	-66.23452	-141.52319	903.31006	-53.465904	66.717354	949.46149	-273.16495	-71.456871	940.05994	-268.80566
